# AST/ASF file generated using VICON BodyLanguage
# -----------------------------------------------
:version 1.10
:name VICON
:units
  mass 1.0
  length 0.45
  angle deg
:documentation
   .ast/.asf automatically generated from VICON data using
   VICON BodyBuilder and BodyLanguage model FoxedUp or BRILLIANT.MOD
:root
   order TX TY TZ RX RY RZ
   axis XYZ
   position 0 0 0  
   orientation 0 0 0 
:bonedata
  begin
     id 1 
     name lhipjoint
     direction 0.78388 -0.462562 0.414208 
     length 3.01181 
     axis 0 0 0  XYZ
  end
  begin
     id 2 
     name lfemur
     direction 0.34202 -0.939693 0  
     length 6.04673  
     axis 0 0 20  XYZ
    dof rx ry rz
    limits (-160.0 20.0)
           (-70.0 70.0)
           (-60.0 70.0)
  end
  begin
     id 3 
     name ltibia
     direction 0.34202 -0.939693 0   
     length 7.211   
     axis 0 0 20   XYZ
    dof rx
    limits (-10.0 170.0)
  end
  begin
     id 4 
     name lfoot
     direction 0.121887 -0.334882 0.934344   
     length 2.13567   
     axis -90 7.62852e-016 20   XYZ
    dof rx rz
    limits (-45.0 90.0)
           (-70.0 20.0)
  end
  begin
     id 5 
     name ltoes
     direction 1.53555e-011 -4.2179e-011 1   
     length 1.05957   
     axis -90 7.62852e-016 20   XYZ
    dof rx
    limits (-90.0 20.0)
  end
  begin
     id 6 
     name rhipjoint
     direction -0.769387 -0.475875 0.426129   
     length 2.92756  
     axis 0 0 0  XYZ 
  end
  begin
     id 7 
     name rfemur
     direction -0.34202 -0.939693 0   
     length 6.35468   
     axis 0 0 -20   XYZ
    dof rx ry rz
    limits (-160.0 20.0)
           (-70.0 70.0)
           (-70.0 60.0)
  end
  begin
     id 8 
     name rtibia
     direction -0.34202 -0.939693 0   
     length 7.37886   
     axis 0 0 -20   XYZ
    dof rx
    limits (-10.0 170.0)
 end
 begin
     id 9 
     name rfoot
     direction -0.101763 -0.279592 0.954711   
     length 2.21478  
     axis -90 -7.62852e-016 -20   XYZ
    dof rx rz
    limits (-45.0 90.0)
           (-20.0 70.0)
  end
  begin
     id 10 
     name rtoes
     direction -1.53494e-011 -4.21851e-011 1   
     length 1.10506   
     axis -90 -7.62852e-016 -20   XYZ
    dof rx
    limits (-90.0 20.0)
  end
  begin
     id 11 
     name lowerback
     direction 0.00747405 0.999267 0.0375481   
     length 2.13259   
     axis 0 0 0   XYZ
    dof rx ry rz
    limits (-20.0 45.0)
           (-30.0 30.0)
           (-30.0 30.0)
  end
  begin
     id 12 
     name upperback
     direction 0.00661626 0.996177 0.0871029   
     length 2.10528   
     axis 0 0 0   XYZ
    dof rx ry rz
    limits (-20.0 45.0)
           (-30.0 30.0)
           (-30.0 30.0)
  end
  begin
     id 13 
     name thorax
     direction 0.00320659 0.997679 0.0680167   
     length 2.11338   
     axis 0 0 0   XYZ
    dof rx ry rz
    limits (-20.0 45.0)
           (-30.0 30.0)
           (-30.0 30.0)
  end
  begin
     id 14 
     name lowerneck
     direction 0.0374841 0.973033 0.227602   
     length 1.42765   
     axis 0 0 0   XYZ
    dof rx ry rz
    limits (-20.0 45.0)
           (-30.0 30.0)
           (-30.0 30.0)
  end
  begin
     id 15 
     name upperneck
     direction 0.00481585 0.989155 -0.146795   
     length 1.47593   
     axis 0 0 0   XYZ
    dof rx ry rz
    limits (-20.0 45.0)
           (-30.0 30.0)
           (-30.0 30.0)
  end
  begin
     id 16
     name head
     direction -0.00292522 0.997206 -0.0746423  
     length 1.48116  
     axis 0 0 0   XYZ
    dof rx ry rz
    limits (-20.0 45.0)
           (-30.0 30.0)
           (-30.0 30.0)
  end
  begin
     id 17 
     name lclavicle
     direction 0.951444 0.305606 0.0368784  
     length 3.01855  
     axis 0 0 0   XYZ
    dof ry rz
    limits (-20.0 10.0)
           (0.0 20.0)
  end
  begin
     id 18 
     name lhumerus
     direction 1 -4.48977e-011 2.61664e-027   
     length 5.52731   
     axis 180 -30 -90   XYZ
    dof rx ry rz
    limits (-60.0 90.0)
           (-90.0 90.0)
           (-90.0 90.0)
  end
  begin
     id 19
     name lradius
     direction 1 -4.48944e-011 8.22157e-027   
     length 3.11059   
     axis 180 -30 -90   XYZ
    dof rx
    limits (-10.0 170.0)
  end
  begin
     id 20
     name lwrist
     direction 1 -4.48976e-011 1.5779e-026   
     length 1.5553   
     axis -1.15221e-014 90 90   XYZ
    dof ry
    limits (-180.0 0.0)
 end
  begin
     id 21 
     name lhand
     direction 1 -4.49025e-011 3.1558e-026   
     length 0.419626   
     axis -2.01367e-014 90 90   XYZ
    dof rx rz
    limits (-90.0 90.0)
           (-45.0 45.0)
  end
  begin
     id 22 
     name lfingers
     direction 1 -4.4904e-011 6.31161e-026   
     length 0.338313   
     axis -4.02734e-014 90 90   XYZ
    dof rx
    limits (0.0 90.0)
  end
  begin
     id 23
     name lthumb
     direction 0.707107 -6.35004e-011 0.707107   
     length 0.485752   
     axis -90 45 2.85299e-015   XYZ
    dof rx rz
    limits (-45.0 45.0)
           (-45.0 45.0)
  end
  begin
     id 24 
     name rclavicle
     direction -0.968876 0.223791 0.105816   
     length 3.04177  
     axis 0 0 0   XYZ 
    dof ry rz
    limits (-10.0 20.0)
           (-20.0 0.0)
  end
  begin
     id 25 
     name rhumerus
     direction -1 -4.48962e-011 -1.01384e-027  
     length 5.25396   
     axis 180 30 90   XYZ
    dof rx ry rz
    limits (-90.0 60.0)
           (-90.0 90.0)
           (-90.0 90.0)
  end
  begin
     id 26 
     name rradius
     direction -1 -4.48955e-011 8.88542e-027   
     length 3.10567   
     axis 180 30 90   XYZ
    dof rx
    limits (-10.0 170.0)
  end
  begin
     id 27 
     name rwrist
     direction -1 -4.48994e-011 1.5779e-026   
     length 1.55283   
     axis -1.15221e-014 -90 -90   XYZ
    dof ry
    limits (-180.0 0.0)
  end
  begin
     id 28
     name rhand
     direction -1 -4.48891e-011 3.1558e-026   
     length 0.498676   
     axis -2.01367e-014 -90 -90   XYZ
    dof rx rz
    limits (-90.0 90.0)
           (-45.0 45.0)
  end
  begin
     id 29
     name rfingers
     direction -1 -4.48972e-011 6.31161e-026   
     length 0.402045   
     axis -4.02734e-014 -90 -90   XYZ
    dof rx
    limits (0.0 90.0)
  end
  begin
     id 30
     name rthumb
     direction -0.707107 -6.34849e-011 0.707107   
     length 0.577259   
     axis -90 -45 -2.85299e-015   XYZ
    dof rx rz
    limits (-45.0 45.0)
           (-45.0 45.0)
  end
:hierarchy
  begin
    root lhipjoint rhipjoint lowerback
    lhipjoint lfemur
    lfemur ltibia
    ltibia lfoot
    lfoot ltoes
    rhipjoint rfemur
    rfemur rtibia
    rtibia rfoot
    rfoot rtoes
    lowerback upperback
    upperback thorax
    thorax lowerneck lclavicle rclavicle
    lowerneck upperneck
    upperneck head
    lclavicle lhumerus
    lhumerus lradius
    lradius lwrist
    lwrist lhand lthumb
    lhand lfingers
    rclavicle rhumerus
    rhumerus rradius
    rradius rwrist
    rwrist rhand rthumb
    rhand rfingers
  end

#!OML:ASF H:\Pregnant\Project 1\Capture day 1\Session 1\femalepreg.ASF
:FULLY-SPECIFIED
:DEGREES
52
root 9.5471 15.795 -1.63736 21.2626 -0.166064 -2.60994
lowerback -16.2115 1.43518 8.45666
upperback -3.3222 0.395989 1.01527
thorax 5.5726 0.313658 -3.6237
lowerneck -12.4925 0.895888 3.42184
upperneck 30.9964 0.937114 -1.73408
head 12.3191 0.596484 -1.12203
rclavicle -2.5345e-015 3.97569e-016
rhumerus -34.9246 -10.8716 -71.0883
rradius 26.4338
rwrist 0.624212
rhand -16.6795 -17.9535
rfingers 7.12502
rthumb 9.5446 -47.7173
lclavicle -2.5345e-015 3.97569e-016
lhumerus -35.6253 -11.2467 87.6984
lradius 33.0649
lwrist 43.4791
lhand -23.1803 -4.29691
lfingers 7.12502
lthumb 3.26901 25.6578
rfemur -30.3448 16.5221 24.7493
rtibia 34.2317
rfoot -19.1429 -11.3288
rtoes -8.3556
lfemur -54.1705 -8.16557 -16.582
ltibia 54.9569
lfoot -8.3996 -3.05742
ltoes -25.599
53
root 9.54542 15.7967 -1.5931 21.3744 -0.175323 -2.37909
lowerback -16.1399 1.3965 8.26304
upperback -3.28204 0.384943 0.9865
thorax 5.57537 0.306839 -3.54779
lowerneck -12.4836 0.941346 3.46518
upperneck 31.022 0.996523 -1.74744
head 12.3301 0.626669 -1.12649
rclavicle 9.88954e-015 -1.03368e-014
rhumerus -34.769 -10.9155 -71.0664
rradius 26.7022
rwrist 0.378115
rhand -16.8481 -18.0299
rfingers 7.12502
rthumb 9.38195 -47.8011
lclavicle 9.88954e-015 -1.03368e-014
lhumerus -35.7918 -11.5273 87.737
lradius 32.8583
lwrist 43.2774
lhand -22.9289 -4.04859
lfingers 7.12502
lthumb 3.51175 25.9022
rfemur -30.3717 16.4992 24.5239
rtibia 34.3938
rfoot -19.2857 -11.4371
rtoes -8.45167
lfemur -54.4375 -8.41004 -16.8069
ltibia 53.9396
lfoot -8.25809 -2.80334
ltoes -25.6331
54
root 9.54438 15.7978 -1.54839 21.4864 -0.180399 -2.1477
lowerback -16.0597 1.35761 8.08279
upperback -3.23915 0.372576 0.946262
thorax 5.57632 0.299602 -3.49192
lowerneck -12.4849 0.987058 3.50949
upperneck 31.0322 1.05523 -1.75964
head 12.337 0.65661 -1.13064
rclavicle 9.34288e-015 -2.14687e-014
rhumerus -34.6178 -10.964 -71.0775
rradius 27.0077
rwrist 0.085533
rhand -16.9988 -18.0959
rfingers 7.12502
rthumb 9.23645 -47.8736
lclavicle 9.34288e-015 -2.14687e-014
lhumerus -35.9499 -11.8088 87.7519
lradius 32.642
lwrist 42.992
lhand -22.6909 -3.87729
lfingers 7.12502
lthumb 3.74163 26.0696
rfemur -30.3959 16.4762 24.2981
rtibia 34.5554
rfoot -19.4259 -11.5559
rtoes -8.55025
lfemur -54.6729 -8.66957 -17.0024
ltibia 52.8286
lfoot -8.13283 -2.49492
ltoes -25.6384
55
root 9.54388 15.7981 -1.50345 21.6036 -0.186622 -1.92218
lowerback -15.9747 1.31842 7.91474
upperback -3.19574 0.3582 0.901383
thorax 5.57498 0.291474 -3.44826
lowerneck -12.4886 1.03455 3.55015
upperneck 31.0245 1.11788 -1.77383
head 12.3372 0.687437 -1.13419
rclavicle -5.46658e-015 -3.97569e-016
rhumerus -34.4698 -10.9916 -71.1228
rradius 27.3526
rwrist -0.262791
rhand -17.1396 -18.1538
rfingers 7.12502
rthumb 9.10068 -47.9375
lclavicle -5.46658e-015 -3.97569e-016
lhumerus -36.0926 -12.076 87.7471
lradius 32.406
lwrist 42.6434
lhand -22.4937 -3.794
lfingers 7.12502
lthumb 3.93202 26.1495
rfemur -30.4241 16.459 24.0758
rtibia 34.7143
rfoot -19.5618 -11.68
rtoes -8.64335
lfemur -54.8887 -8.92407 -17.1681
ltibia 51.6363
lfoot -8.00048 -2.17263
ltoes -25.596
56
root 9.54403 15.798 -1.45814 21.7249 -0.197383 -1.70988
lowerback -15.8831 1.28248 7.7682
upperback -3.15404 0.345309 0.851046
thorax 5.56847 0.284162 -3.42221
lowerneck -12.4834 1.08204 3.59076
upperneck 30.9965 1.18086 -1.78854
head 12.3274 0.718181 -1.13774
rclavicle 4.96962e-016 -1.47101e-014
rhumerus -34.3293 -11.0089 -71.1985
rradius 27.7268
rwrist -0.646428
rhand -17.253 -18.1841
rfingers 7.12502
rthumb 8.99119 -47.9725
lclavicle 4.96962e-016 -1.47101e-014
lhumerus -36.2272 -12.3185 87.717
lradius 32.1495
lwrist 42.2316
lhand -22.325 -3.84094
lfingers 7.12502
lthumb 4.09497 26.0995
rfemur -30.4511 16.4435 23.8643
rtibia 34.8636
rfoot -19.6951 -11.7981
rtoes -8.72361
lfemur -55.0839 -9.17196 -17.2971
ltibia 50.3724
lfoot -7.84133 -1.84679
ltoes -25.5028
57
root 9.54489 15.7972 -1.41278 21.8589 -0.21164 -1.51603
lowerback -15.7915 1.24965 7.64602
upperback -3.11331 0.332333 0.799129
thorax 5.56088 0.277096 -3.41155
lowerneck -12.4854 1.13113 3.62588
upperneck 30.9548 1.24647 -1.80108
head 12.3136 0.749552 -1.13902
rclavicle -6.06293e-015 1.98785e-015
rhumerus -34.1877 -10.9998 -71.3082
rradius 28.1317
rwrist -1.06743
rhand -17.3353 -18.2108
rfingers 7.12502
rthumb 8.91179 -48.0026
lclavicle -6.06293e-015 1.98785e-015
lhumerus -36.3391 -12.5337 87.6629
lradius 31.8678
lwrist 41.7864
lhand -22.1881 -3.96782
lfingers 7.12502
lthumb 4.22718 25.97
rfemur -30.482 16.4287 23.666
rtibia 34.9891
rfoot -19.8087 -11.9053
rtoes -8.81808
lfemur -55.2718 -9.41075 -17.3834
ltibia 49.0449
lfoot -7.63048 -1.52752
ltoes -25.3587
